<svg width="208" height="74" viewBox="0 0 208 74" fill="none" xmlns="http://www.w3.org/2000/svg">
<path fill-rule="evenodd" clip-rule="evenodd" d="M31.814 31.554C32.7729 32.3462 33.8907 32.8598 35.028 33.3424C35.7487 33.6105 36.409 33.852 37.0692 34.0934L37.0476 34.1949C34.9123 34.198 32.818 33.8314 30.6653 33.4547C30.5472 33.4341 30.4289 33.4134 30.3104 33.3927C30.373 33.5543 30.4746 33.6683 30.5753 33.7813C30.6907 33.9108 30.805 34.0391 30.8585 34.2365C29.3265 33.4903 27.7929 32.9812 26.0358 32.8873C26.4432 33.5965 27.0552 34.0694 27.6683 34.5431C27.9008 34.7227 28.1334 34.9025 28.3552 35.0954C28.1283 35.1671 27.973 35.1335 27.8186 35.0988C26.1923 34.7334 24.6369 34.197 23.1884 33.4016C22.9829 33.2888 22.81 33.157 22.694 32.9523C21.3925 30.656 19.2639 29.5243 16.6094 29.1226C16.3812 29.088 16.1504 29.0705 15.9205 29.053C15.5619 29.0256 15.2053 28.9985 14.8639 28.9074C14.7863 28.7395 14.8788 28.6434 14.9629 28.5561C14.974 28.5446 14.985 28.5332 14.9953 28.5219C15.505 27.9648 15.915 27.3456 16.1921 26.6637C16.6613 25.5087 17.6071 25.0481 18.8316 25.0805C20.2136 25.1171 21.3922 24.7531 22.4503 23.9007C23.6524 22.9321 25.1159 22.8162 26.625 22.9623C27.0521 23.0037 27.469 23.0979 27.907 23.1968C28.0441 23.2278 28.1833 23.2593 28.3256 23.2897C28.2661 23.0879 28.126 23.0344 27.9987 22.9859C27.9729 22.976 27.9476 22.9664 27.9236 22.9557C26.8281 22.4694 25.655 22.2531 24.4633 22.1402C22.6418 21.9677 20.8257 22.0441 19.0269 22.3726C18.5994 22.4506 18.1736 22.5587 17.7647 22.6986C17.4044 22.8219 17.2346 22.7086 17.0911 22.4052C16.5475 21.2552 16.8861 19.9761 17.9772 19.1019C18.0084 19.0769 18.0434 19.055 18.079 19.0328C18.1766 18.9718 18.2788 18.9079 18.3206 18.7678C18.1397 18.7148 18.0101 18.7991 17.888 18.8784C17.8629 18.8947 17.8382 18.9108 17.8133 18.9255C16.2174 19.868 15.0437 21.1539 14.6043 22.8865C13.8803 25.7409 11.9472 27.6398 9.36502 29.0734C8.13038 29.7589 6.81306 30.2826 5.48752 30.7886C5.461 30.7987 5.43335 30.8073 5.40522 30.816C5.29553 30.8501 5.17861 30.8864 5.09358 31.0244C5.30047 31.1072 5.49677 31.0773 5.69074 31.0478C5.71573 31.044 5.74068 31.0402 5.76562 31.0366C6.54373 30.9258 7.31367 30.7767 8.07749 30.5992C9.39305 30.2935 10.486 30.5991 11.3601 31.6026C12.0678 32.4151 12.9715 32.9523 14.093 33.1036C14.7712 33.1952 15.457 33.2248 16.1433 33.2119C16.3784 33.2075 16.6081 33.2296 16.8318 33.3056C17.1096 33.4001 17.3525 33.5514 17.371 33.8404C17.3884 34.1136 17.1606 34.28 16.9222 34.4023C16.5858 34.5749 16.2155 34.6609 15.8443 34.7304C15.658 34.7653 15.4717 34.7999 15.2854 34.8344C13.4849 35.1685 11.6848 35.5025 9.96122 36.1246C9.81676 36.1768 9.66938 36.2217 9.522 36.2667C9.39187 36.3064 9.26173 36.3461 9.13358 36.3907C7.98006 36.7926 6.82213 36.7661 5.66099 36.428C4.27354 36.024 3.02983 35.392 1.99612 34.413C1.72517 34.1564 1.6463 33.9871 2.02737 33.7498C3.26934 32.9763 3.71838 31.3504 2.40667 30.1431C2.11819 29.8776 2.29021 29.7207 2.53265 29.5586C4.23373 28.4209 5.97988 27.3476 7.75289 26.3122C7.87742 26.2394 8.00249 26.1673 8.1276 26.0952C8.60014 25.8227 9.07318 25.55 9.51914 25.243C11.364 23.9733 11.9344 22.2028 11.7293 20.139C11.6875 19.7183 11.554 19.3199 11.4084 18.8856C11.3691 18.7683 11.3288 18.6483 11.2893 18.5245C11.8166 19.022 11.9562 19.6024 12.0976 20.1904C12.1053 20.2223 12.113 20.2542 12.1207 20.286C12.243 19.8365 12.2511 19.3963 12.176 18.9619C12.1382 18.7433 12.1569 18.5569 12.2703 18.3708C13.6338 16.1335 15.1835 14.0296 17.2418 12.297C18.4867 11.2491 19.8868 10.4055 21.3161 9.60054C22.5934 8.88127 23.8411 8.11885 25.0119 7.2502C25.0262 7.23955 25.0401 7.22767 25.0544 7.21546C25.1254 7.15474 25.2061 7.08578 25.4008 7.11876C24.7274 7.92643 23.8824 8.50171 23.0406 9.07477C22.7284 9.28728 22.4167 9.49949 22.1143 9.72313C24.5086 8.55407 26.9499 7.53468 29.6207 7.04668C27.3826 8.40261 25.2339 9.85054 23.334 11.6215C25.5768 11.9845 27.5838 11.531 29.3204 10.162C31.0142 8.82674 31.8777 7.00873 32.5458 5.07469C32.696 5.55172 32.6292 6.01912 32.5607 6.4984C32.5298 6.71484 32.4985 6.93371 32.4867 7.15698C32.8033 7.05093 33.0161 6.87092 33.22 6.69833C33.2859 6.64257 33.3509 6.58759 33.4182 6.53613C34.1948 5.94207 34.9647 5.34026 35.7346 4.73844C37.624 3.26159 39.5133 1.78476 41.5009 0.422687C42.4413 -0.221777 42.5299 -0.181609 42.7206 0.90833C42.9674 2.31876 43.0303 3.74322 43.0584 5.16667C43.0615 5.32368 43.0652 5.48077 43.0688 5.6379C43.0916 6.60493 43.1143 7.57382 42.9994 8.53954C42.998 8.55071 42.9966 8.56198 42.9951 8.57335C42.9793 8.69438 42.962 8.82701 43.0948 8.96757C43.2215 8.80261 43.2556 8.61061 43.2892 8.4208C43.3276 8.2042 43.3655 7.99046 43.54 7.82304C43.5543 9.47791 43.0864 11.0361 42.4126 12.5816C42.5939 12.615 42.6985 12.5335 42.7976 12.4563C42.8408 12.4227 42.8829 12.3899 42.9298 12.3678C42.9814 12.3434 43.0275 12.31 43.0759 12.275C43.1829 12.1975 43.301 12.112 43.5134 12.0984C43.2779 12.4304 43.2147 12.7554 43.2621 13.1048C43.2786 13.2263 43.1271 13.3152 43.0123 13.3717C41.7441 13.9958 40.9549 15.0006 40.4246 16.2188C40.3614 16.3641 40.2784 16.5017 40.1954 16.6395C40.1485 16.7173 40.1016 16.7951 40.0582 16.8743C39.9273 17.1133 39.723 17.2277 39.4399 17.2758C38.9818 17.3536 38.5258 17.4513 38.0779 17.5705C37.4293 17.7429 36.8196 17.6194 36.1118 17.4195C36.3302 17.1186 36.5545 16.8325 36.7753 16.5508C37.1258 16.1037 37.4674 15.668 37.7624 15.2027C38.2396 14.4499 38.5763 13.6324 38.9251 12.7856L38.9292 12.7756C39.1636 12.9239 39.233 13.1094 39.2996 13.2876C39.3444 13.4072 39.3879 13.5235 39.4793 13.623C39.7145 13.4791 39.8346 13.2552 39.9554 13.0299C40.0557 12.8429 40.1565 12.655 40.3241 12.5111C40.5358 12.6495 40.5331 12.839 40.5304 13.0304C40.5284 13.1711 40.5263 13.3127 40.6093 13.4358C40.7849 13.3352 40.8397 13.1758 40.8922 13.023C40.9046 12.9871 40.9168 12.9514 40.9305 12.917C41.4687 11.5626 41.7451 10.1489 41.9897 8.72805C42.2541 7.19274 42.301 5.64618 42.2536 4.09616C42.2318 3.38125 42.1197 2.67515 41.8112 2.01287C41.5674 1.48963 41.3517 1.42676 40.8287 1.72258C40.1267 2.11967 39.4877 2.60007 38.8533 3.08481C37.6977 3.96775 36.563 4.87335 35.4986 5.85391C35.4838 5.86751 35.4687 5.88098 35.4535 5.8946C35.3449 5.99179 35.2284 6.09603 35.1567 6.30272C35.4322 6.24595 35.6951 6.16902 35.9541 6.09324C36.4356 5.95234 36.9033 5.81546 37.4131 5.81983C37.0928 6.07859 36.7595 6.32229 36.4259 6.56613C35.7736 7.043 35.1206 7.5204 34.563 8.11199C34.841 8.11126 35.116 8.08836 35.3903 8.06552C35.9064 8.02254 36.4198 7.97979 36.9452 8.08554C36.6206 8.33277 36.2704 8.54357 35.9113 8.75973C35.4642 9.0289 35.0033 9.30636 34.5607 9.6728C34.9365 9.68221 35.2818 9.62737 35.6137 9.57467C36.0356 9.50768 36.4357 9.44415 36.8488 9.52048C35.3421 11.0384 33.4222 11.7012 31.2962 12.0001C32.8692 12.665 34.4991 12.5273 36.1412 12.3886C36.3744 12.3689 36.6079 12.3492 36.8415 12.3317C36.2777 12.9885 35.5068 13.2377 34.7354 13.487C34.4766 13.5706 34.2176 13.6543 33.9664 13.7534C34.1902 13.8065 34.4112 13.7846 34.632 13.7628C34.8379 13.7424 35.0436 13.7221 35.2513 13.7626C33.4389 15.2023 31.2812 15.2296 28.9668 15.0756C29.3414 15.4711 29.784 15.6832 30.2139 15.8891C30.4193 15.9875 30.6218 16.0845 30.8125 16.1994C30.4957 16.3998 29.3926 16.2525 27.9028 15.8391C26.9422 15.5725 25.9891 15.2854 25.0296 14.8882C25.3176 15.7739 29.2027 17.9779 31.7726 18.783C34.3596 19.5935 36.98 19.6916 39.6465 19.1388C38.2992 19.8573 36.8256 20.1254 35.3349 20.3966C35.0346 20.4512 34.7336 20.506 34.4328 20.5645C34.7872 20.7212 35.1531 20.8515 35.519 20.9817C36.1541 21.2077 36.7892 21.4338 37.3645 21.7982C35.6414 21.4124 33.9161 21.1376 32.119 21.4291C35.2004 22.5004 38.0639 23.889 40.3849 26.1483C38.781 25.6749 37.1709 25.3616 35.4766 25.5947C35.718 25.7067 35.9653 25.807 36.2124 25.9072C36.7904 26.1416 37.3672 26.3756 37.865 26.7572L37.8151 26.7461C36.1582 26.3776 34.5098 26.0111 32.7711 26.1314C35.2615 27.2528 37.5783 28.5965 39.4689 30.5262C39.0984 30.4147 38.7389 30.279 38.3801 30.1434C37.927 29.9723 37.475 29.8016 37.0033 29.6808C36.1658 29.4663 35.3274 29.2725 34.3727 29.2782C34.5716 29.475 34.8011 29.6016 35.0342 29.7301C35.2758 29.8633 35.5212 29.9986 35.7405 30.2165C34.2424 29.7686 32.8267 29.4531 31.2305 29.4172C31.749 30.0273 32.3423 30.4062 32.9459 30.7632C33.3571 31.0064 33.7802 31.2318 34.2321 31.4725C34.4386 31.5825 34.651 31.6956 34.8711 31.8152C34.0231 31.8996 33.2578 31.7777 32.5024 31.6574C32.2727 31.6209 32.0439 31.5844 31.814 31.554ZM47.2285 38.2651C47.5316 36.8735 47.4555 35.5127 47.1447 34.1567C46.7001 32.6384 45.9702 31.3699 44.658 30.4475C44.2093 30.1321 43.7197 29.8939 43.1926 29.7218C43.1719 29.7151 43.151 29.709 43.1295 29.7028C43.0125 29.6689 42.8827 29.6313 42.7182 29.459C44.0912 29.3588 45.2418 29.6703 46.3165 30.2825C47.3877 30.8928 48.1504 31.7801 48.7883 32.8331C48.9429 31.9798 47.5938 29.2186 46.3088 27.6804C45.0542 26.1786 43.529 24.9601 41.7658 23.95C42.1343 23.8013 42.4014 23.873 43.7246 24.4097C44.3491 24.663 44.9499 24.9562 45.5274 25.3109C44.9033 24.2951 43.9619 23.5866 43.0112 22.8711C42.9678 22.8384 42.9244 22.8058 42.8811 22.7731C44.5743 23.0983 45.9261 24.0143 47.3412 25.0631C47.1712 24.2983 46.7731 23.7229 46.3812 23.1564C46.2671 22.9916 46.1536 22.8276 46.0464 22.6598C47.2839 23.2817 48.1995 24.2363 49.1081 25.2089C47.9571 22.2472 45.8075 20.0361 43.159 18.1838C45.4897 18.7889 47.1279 20.283 48.6691 21.9329C48.6143 20.6069 47.9288 19.5298 47.2339 18.4387C47.663 18.547 48.004 18.7782 48.344 19.0087C48.487 19.1057 48.6299 19.2025 48.7791 19.2901C47.6668 17.4489 46.01 16.164 44.0764 15.1477C44.5763 15.211 45.0431 15.3467 45.5007 15.5137C47.309 16.1739 48.9196 17.1131 50.2183 18.4869C51.7014 20.0557 53.5398 21.0525 55.707 21.5267C55.7194 21.5294 55.732 21.5318 55.7447 21.5342C55.83 21.5505 55.9203 21.5678 55.9916 21.6858C53.8232 22.0148 51.7997 21.5033 49.7662 20.9138C50.4594 21.7554 51.3388 22.3774 52.2612 22.9551C53.0743 23.4643 53.9471 23.8672 54.827 24.2733C54.9584 24.3339 55.09 24.3946 55.2215 24.4558C54.0335 24.4198 52.9154 24.108 51.7911 23.7944C51.2601 23.6463 50.7278 23.4978 50.1861 23.3779C53.5042 25.5478 56.3226 28.115 58 31.6526C56.1234 29.3565 53.7421 27.9636 50.5728 27.8911C52.9789 29.8713 54.9282 32.1497 56.1355 34.9532C57.3389 37.7476 57.6923 40.6279 57.25 43.616C56.7723 40.2524 55.4063 37.4443 51.9306 35.9067C53.3308 38.5655 54.3445 41.332 54.7961 44.2648C55.2446 47.1775 55.1367 50.0629 54.2924 52.9073C54.1371 52.6546 54.1498 52.3924 54.1623 52.1336C54.1647 52.0845 54.167 52.0355 54.1682 51.9868C54.2151 50.1126 53.9215 48.2964 53.1173 46.5713C52.2458 44.7018 50.8925 43.2677 48.8473 42.4774C48.6992 42.4201 48.5471 42.3716 48.3947 42.3254C48.3701 42.318 48.3418 42.3213 48.307 42.3254C48.2889 42.3276 48.269 42.3299 48.247 42.3311C48.2232 42.4784 48.3064 42.5787 48.3864 42.6752C48.4098 42.7034 48.433 42.7313 48.4531 42.7599C49.8107 44.6937 50.6607 46.8095 50.9374 49.1096C51.4223 53.1402 50.3587 56.8021 47.8787 60.1106C46.4595 62.004 44.6883 63.5657 42.7342 64.9555C42.5505 65.0862 42.347 65.1923 42.1301 65.2871C42.3124 65.0769 42.4972 64.8691 42.6819 64.6614C43.2136 64.0633 43.744 63.4667 44.2103 62.8218C45.8972 60.4886 46.9671 57.9435 47.2594 55.1197C47.5484 52.3283 47.151 49.6521 45.8141 47.124C45.5668 46.6563 45.2787 46.2106 44.9431 45.7938C44.9272 45.7741 44.9119 45.7535 44.8965 45.7327C44.8212 45.6316 44.744 45.528 44.5917 45.5099C44.4763 45.5467 44.4512 45.6418 44.4286 45.7274C44.4241 45.7444 44.4197 45.7611 44.4147 45.7769C43.522 48.5897 41.6069 50.6707 39.1051 52.3247C36.5546 54.0108 33.6902 54.985 30.6567 55.5558C30.1529 55.6506 29.6436 55.7196 29.1344 55.7886C28.9375 55.8153 28.7406 55.842 28.544 55.8702C28.4012 55.8906 28.2533 55.9067 28.1234 55.793C28.2017 55.6779 28.3235 55.6522 28.444 55.6268C28.4751 55.6203 28.5061 55.6137 28.5363 55.6057C31.0039 54.9466 33.3801 54.0821 35.529 52.7431C37.9579 51.2296 39.5278 49.1337 40.1882 46.4569C40.3228 45.9112 40.3872 45.3549 40.2715 44.7856C40.2409 44.635 40.2674 44.4749 40.294 44.314C40.3083 44.227 40.3227 44.1397 40.3282 44.0537C40.4411 42.2632 39.9503 40.6346 38.8433 39.1715C38.7698 39.0743 38.7117 38.9668 38.6756 38.8464C39.9855 39.7194 40.6844 40.9842 41.2177 42.3678C41.8804 40.1964 41.1318 38.3664 39.6491 36.6834C40.1694 36.7376 41.1595 37.5167 41.8726 38.3675C42.4836 39.0964 42.9504 39.9009 43.2991 40.7649C43.6396 41.6088 43.8682 42.4851 44.0798 43.3775C44.252 43.2945 44.2544 43.1625 44.2566 43.0419C44.2567 43.0321 44.2569 43.0225 44.2572 43.013C44.3198 40.7138 44.1851 38.4397 43.3223 36.2518C42.7943 34.9128 42.0143 33.7434 40.8264 32.8346C40.8151 32.826 40.8034 32.818 40.7917 32.8099C40.7452 32.7781 40.6985 32.746 40.6803 32.6789C42.1993 33.0619 43.526 33.7585 44.6977 34.7236C45.8696 35.6888 46.6528 36.9027 47.2285 38.2651ZM5.69372 62.4501C5.60665 62.5069 5.51957 62.5637 5.43295 62.621C4.21808 63.2858 3.01405 63.7957 1.61143 63.8159C2.98293 63.0071 4.19212 62.0538 5.17136 60.8495C6.01028 59.8177 6.58684 58.6554 7.16595 57.4879C7.26369 57.2909 7.3615 57.0937 7.46065 56.897C7.38496 57.4141 7.23922 57.9146 7.09269 58.4179C6.95312 58.8972 6.81282 59.3791 6.73166 59.88C6.94892 59.8382 7.02434 59.7082 7.09476 59.5868C7.11362 59.5543 7.13211 59.5224 7.15288 59.493C8.08686 58.1706 8.77039 56.7357 9.34263 55.2455C10.1787 53.068 11.3198 51.0593 13.124 49.4351C13.5142 49.0838 13.954 48.7908 14.4279 48.475L14.4578 48.4551C14.1545 48.2657 13.8661 48.3026 13.5939 48.3374C13.5604 48.3417 13.5271 48.3459 13.494 48.3498C12.9987 48.4067 12.5389 48.5796 12.0908 48.7898C9.86619 49.8334 7.57483 50.7127 5.14301 51.2364C4.99783 51.2677 4.84955 51.2861 4.70651 51.304C4.64169 51.312 4.57794 51.32 4.51605 51.3289C4.45264 51.2604 4.4973 51.2347 4.52903 51.217C6.97479 49.8536 8.84997 47.9342 10.5086 45.8013C11.5454 44.4681 12.6932 43.2275 14.0243 42.1442C14.0422 42.1297 14.0598 42.1141 14.0776 42.0983C14.1949 41.9946 14.3232 41.8812 14.6057 41.9874C13.7829 43.7121 12.7134 45.258 11.2776 46.5965C11.6978 46.5557 12.0719 46.4127 12.4441 46.2704C12.7108 46.1684 12.9765 46.0668 13.2575 46.0035C12.7307 46.6741 12.0064 47.0927 11.2787 47.5133C11.028 47.6582 10.777 47.8033 10.5334 47.959C14.1367 47.9525 17.259 46.8327 19.8891 44.4398C19.8 45.4347 19.4062 46.2994 18.9811 47.1535C18.6566 47.8055 18.2571 48.4175 17.8511 49.0393C17.7239 49.2341 17.5961 49.4299 17.4698 49.6282C18.5114 49.5745 19.4353 49.22 20.3242 48.7665C21.2178 48.3105 21.9634 47.6783 22.6626 46.9485C22.7771 47.1094 22.7199 47.2321 22.669 47.3411C22.6594 47.3618 22.6499 47.382 22.642 47.4018C21.8403 49.3985 20.4291 50.9298 18.5569 52.1039C17.3839 52.8396 16.1081 53.377 14.7807 53.8122C14.6435 53.8572 14.5068 53.9042 14.3719 53.9548C14.3583 53.9599 14.3483 53.9733 14.3251 54.0044C14.3094 54.0255 14.2877 54.0546 14.2547 54.0947C15.7531 54.2137 17.1805 54.117 18.6053 53.935C20.0472 53.7509 21.4431 53.3905 22.8336 52.8609C22.8482 53.1261 22.7173 53.2611 22.5981 53.3839C22.5743 53.4085 22.5509 53.4326 22.5292 53.4571C20.9768 55.2191 19.6391 57.1102 18.5902 59.179C18.0292 60.2854 17.61 61.4377 17.2811 62.6211C17.2674 62.6706 17.2731 62.7248 17.3195 62.8041C18.2722 61.0373 19.4181 59.4056 20.9066 57.9981C20.9156 58.2005 20.81 58.3532 20.7055 58.5045C20.6817 58.539 20.6579 58.5734 20.6355 58.6084C19.4064 60.5281 18.6425 62.5988 18.3855 64.8268C18.1236 67.0966 18.5125 69.3084 19.1144 71.4971C19.1706 71.7015 19.2328 71.9044 19.2949 72.1074C19.3295 72.2201 19.364 72.3328 19.3975 72.4458C19.3989 72.4507 19.3973 72.4564 19.3936 72.4656C19.3892 72.4763 19.382 72.4917 19.3734 72.5159C19.1698 72.4897 19.0344 72.3633 18.9012 72.239C18.8758 72.2153 18.8504 72.1916 18.8247 72.1687C17.0763 70.6141 16.1298 68.6465 15.5546 66.4961C15.2552 65.3765 15.1104 64.2344 15.1043 63.0778C15.1042 63.0527 15.1058 63.0272 15.1074 63.001C15.1152 62.8785 15.1239 62.7409 14.9602 62.5623C13.724 66.2873 14.1284 69.8149 15.8195 73.2716C15.6166 73.3448 15.5035 73.2478 15.4 73.159C15.3802 73.142 15.3608 73.1254 15.3412 73.1103C14.1803 72.2158 13.4393 71.0462 12.8741 69.7621C12.1477 68.1118 11.7889 66.3882 11.9791 64.615C12.2454 62.1317 13.1658 59.9011 15.1929 58.1774C15.2187 58.1555 15.2377 58.1266 15.2626 58.0886C15.2764 58.0676 15.292 58.0438 15.3115 58.017C15.0909 57.975 14.9417 58.0634 14.8015 58.1464C14.7773 58.1608 14.7533 58.1749 14.7293 58.1883C13.7816 58.7143 13.051 59.4591 12.3999 60.2769C10.8507 62.2228 9.83955 64.4209 9.02301 66.7074C8.92033 66.9949 8.82991 67.2863 8.73949 67.5777C8.6747 67.7865 8.60991 67.9952 8.54061 68.2026C8.53137 68.2303 8.52318 68.2586 8.51488 68.2874C8.47412 68.4285 8.43036 68.5801 8.244 68.7115C8.02224 68.2682 7.98212 67.8173 7.94271 67.3746C7.9396 67.3397 7.9365 67.3048 7.93331 67.2699C7.65055 64.1818 8.57294 61.331 9.89299 58.5605C9.94665 58.4479 10.0024 58.336 10.0512 58.2215C10.0608 58.1989 10.0623 58.1732 10.0645 58.1364C10.0657 58.1157 10.0671 58.0915 10.0703 58.0624C9.88329 58.0909 9.81126 58.2131 9.74417 58.3268C9.72509 58.3592 9.7064 58.3909 9.68559 58.4196C8.7031 59.7722 7.67183 61.0837 6.25537 62.0752C6.07125 62.2041 5.88249 62.3271 5.69372 62.4501ZM25.4972 67.2974C25.3597 68.3018 25.3927 69.3217 25.6224 70.3235C25.8568 71.6959 26.4485 72.8627 27.1388 74C25.8447 73.0576 24.9961 71.7908 24.1359 70.5069L24.0827 70.4274C23.7642 71.2471 23.9568 72.0302 24.1507 72.8179C24.1946 72.9964 24.2385 73.1751 24.2766 73.3545C23.1646 72.3369 22.7445 71.0699 22.7361 69.6671C22.728 68.2966 23.1464 67.0047 23.7607 65.6693C22.8845 66.2142 21.8161 68.8231 21.4727 71.1388C20.9425 68.306 21.3035 65.6885 22.4425 63.1588C23.4298 60.9659 24.883 59.0939 26.8657 57.5874C25.5271 59.3758 24.3205 61.225 23.577 63.3228C25.5919 60.8679 28.1585 59.1984 31.3112 58.2599C31.333 58.455 31.2297 58.5088 31.1394 58.5558C31.1189 58.5665 31.0991 58.5768 31.0815 58.5883C27.8523 60.7163 25.9987 63.6325 25.4972 67.2974ZM14.6455 3.82651C14.3966 3.45672 14.1504 3.09098 13.9205 2.71648C13.8477 2.5722 13.8015 2.47645 13.712 2.29105C14.3796 2.73665 14.8571 3.25122 15.3282 3.75871C15.3808 3.81538 15.4333 3.87195 15.486 3.92834C16.5089 5.02306 17.4233 6.19245 18.2429 7.43135C18.6722 8.08029 18.7076 8.69536 18.3212 9.3654C18.256 9.47833 18.1913 9.59148 18.1265 9.70462C17.5964 10.6309 17.0667 11.5566 16.3292 12.3593L16.3193 12.3701C16.0998 12.6091 15.8724 12.8568 15.4111 12.9251C16.4401 11.0364 15.2958 9.79926 14.1061 8.5132C14.0582 8.46138 14.0101 8.40948 13.9622 8.35746C14.5255 8.36547 14.9955 8.52903 15.5078 8.7073C15.6243 8.74784 15.7429 8.78914 15.8654 8.82954C15.7208 8.46119 15.4693 8.19981 15.2249 7.94567C15.0788 7.79383 14.9353 7.64457 14.8184 7.47663C14.9303 7.37552 15.0727 7.34446 15.2141 7.31364C15.3965 7.27387 15.577 7.2345 15.6875 7.04555C14.9219 6.4474 14.0909 5.93763 13.1587 5.40051C14.1255 5.30994 14.936 5.51188 15.8483 5.76546C15.4814 5.06858 15.0596 4.44194 14.6455 3.82651ZM37.004 43.8657C37.0021 43.8329 37.0003 43.8001 36.9986 43.7673C36.9001 43.3693 36.8088 43.0401 36.7146 42.7002L36.7145 42.7C37.8531 43.4297 37.5027 46.4433 36.0757 47.7698C36.0752 47.5936 36.087 47.4219 36.0985 47.2532C36.1258 46.8542 36.1519 46.4722 36.0125 46.0879C34.9543 48.0448 33.8165 49.9162 31.675 51.0209C31.5398 50.8246 31.6206 50.7098 31.6927 50.6074C31.7064 50.5881 31.7197 50.5691 31.7312 50.5502C31.9624 50.169 32.1949 49.7874 32.4508 49.4208C33.3437 48.1419 33.6905 46.7483 33.4781 45.2315C33.4706 45.1777 33.4623 45.1231 33.4652 45.0693C33.4659 45.0564 33.4779 45.0439 33.5002 45.0206C33.5141 45.0062 33.532 44.9876 33.5537 44.9622C33.9557 45.4909 34.0972 46.0711 34.137 46.6842C34.1777 47.3123 33.994 47.8992 33.7091 48.5038C33.9256 48.5126 34.0041 48.4013 34.076 48.2993C34.087 48.2837 34.0979 48.2683 34.1091 48.2535C35.0317 47.0391 35.5257 45.6849 35.6044 44.1942C35.6066 44.1536 35.6041 44.1118 35.6017 44.0692C35.5931 43.9213 35.5839 43.7644 35.7647 43.6187C36.2617 43.9871 36.4541 44.5186 36.6714 45.1188C36.7089 45.2225 36.7472 45.3282 36.7879 45.4355C37.0585 44.8527 37.031 44.3554 37.004 43.8657ZM33.8185 60.9776C34.4602 60.6209 35.0611 60.2867 35.5905 59.8555C37.4242 58.4421 38.7313 56.7086 39.8352 54.7657C39.9169 55.143 39.6902 55.7273 39.0561 56.9342C38.8223 57.3794 38.5486 57.8017 38.2723 58.2283C38.13 58.448 37.9869 58.6688 37.8482 58.8943C38.7413 58.4908 39.47 57.8877 40.1743 57.2563C40.7376 56.7513 41.209 56.1698 41.6892 55.5775C41.8084 55.4305 41.9282 55.2827 42.05 55.1354C42.2309 55.3215 42.1515 55.4504 42.082 55.5633C42.0687 55.5849 42.0557 55.606 42.045 55.6267C41.0445 57.5677 39.4642 58.9884 37.5066 60.0619C36.4309 60.6517 35.2902 61.0968 34.0732 61.3609C33.8035 61.4194 33.5362 61.4417 33.123 61.3704C33.359 61.2331 33.5913 61.104 33.8185 60.9776ZM20.8301 22.9287C20.8208 22.9389 20.8116 22.9492 20.8038 22.959C20.4543 23.2556 20.1337 23.5147 19.7547 23.6966C19.6002 23.7707 19.4379 23.8373 19.2714 23.881C19.0036 23.9513 18.6565 24.0395 18.5293 23.7561C18.3948 23.4567 18.7113 23.3284 18.9485 23.2322C18.9612 23.2271 18.9737 23.222 18.9858 23.217C19.5486 22.9863 20.1464 22.8714 20.7601 22.8344C20.9243 22.8245 20.8778 22.8759 20.8301 22.9287ZM1.59445 31.3984C1.55098 31.3811 1.50757 31.3639 1.46373 31.3527C1.06335 31.2053 0.718075 31.1176 0.354331 31.0809C0.209456 31.0662 -0.00902757 31.0403 0.000288364 30.8482C0.00915 30.6653 0.180396 30.6665 0.328035 30.6676C0.343882 30.6677 0.359457 30.6678 0.374529 30.6677C0.864399 30.6638 1.31861 30.7883 1.72955 31.0363L1.73258 31.0381C1.86001 31.115 2.00344 31.2016 1.97926 31.4052C1.84339 31.4972 1.71873 31.4477 1.59445 31.3984Z" fill="url(#paint0_linear_8224_65)"/>
<path d="M8.54187 33.7362C8.27579 33.6423 8.20666 33.4853 8.31089 33.2767C8.39055 33.1173 8.55141 33.0893 8.71683 33.121C8.87455 33.1512 8.97293 33.2565 8.97085 33.4081C8.96765 33.6416 8.81817 33.7433 8.54187 33.7362Z" fill="black"/>
<path d="M5.59411 33.5554C5.81728 33.3968 5.9997 33.4154 6.13993 33.6055C6.23047 33.7283 6.21875 33.8674 6.11207 33.9812C5.99637 34.1046 5.84711 34.1564 5.68712 34.0628C5.48183 33.9428 5.43739 33.7762 5.59411 33.5554Z" fill="black"/>
<path d="M7.4074 33.0032C7.221 33.1825 7.04057 33.2207 6.86007 33.0584C6.72937 32.9409 6.72128 32.7935 6.8211 32.6551C6.92564 32.5102 7.09216 32.4962 7.24433 32.5541C7.44288 32.6295 7.5249 32.7751 7.4074 33.0032Z" fill="black"/>
<path d="M9.07736 35.3503C8.84228 35.255 8.78362 35.1025 8.8436 34.912C8.88391 34.784 8.99664 34.72 9.13355 34.705C9.27766 34.6892 9.40179 34.7563 9.45184 34.8694C9.58639 35.1735 9.43189 35.3221 9.07736 35.3503Z" fill="black"/>
<path d="M8.15362 34.2617C7.99421 34.5029 7.79922 34.5383 7.58806 34.3975C7.4593 34.3117 7.42441 34.17 7.50161 34.0328C7.58504 33.8845 7.73032 33.822 7.90333 33.8643C8.09697 33.9118 8.18193 34.0434 8.15362 34.2617Z" fill="black"/>
<path d="M7.15597 34.871C7.16533 35.1105 7.07241 35.2544 6.84381 35.2662C6.66265 35.2755 6.54885 35.1651 6.50817 35.0032C6.4716 34.8576 6.51346 34.7267 6.6628 34.6568C6.88961 34.5506 7.05082 34.6279 7.15597 34.871Z" fill="black"/>
<path d="M76.04 46V23.92H77.576V44.592H89.064V46H76.04ZM92.3078 41.424V34.096C92.3078 31.0453 93.8331 29.52 96.8838 29.52H101.364C104.393 29.52 105.908 31.0453 105.908 34.096V41.424C105.908 44.4747 104.393 46 101.364 46H96.8838C93.8331 46 92.3078 44.4747 92.3078 41.424ZM93.7478 41.744C93.7478 43.728 94.7398 44.72 96.7238 44.72H101.492C103.476 44.72 104.468 43.728 104.468 41.744V33.776C104.468 31.792 103.476 30.8 101.492 30.8H96.7238C94.7398 30.8 93.7478 31.792 93.7478 33.776V41.744ZM110.839 41.424V34.096C110.839 31.0453 112.364 29.52 115.415 29.52H119.895C122.924 29.52 124.439 31.0453 124.439 34.096V41.424C124.439 44.4747 122.924 46 119.895 46H115.415C112.364 46 110.839 44.4747 110.839 41.424ZM112.279 41.744C112.279 43.728 113.271 44.72 115.255 44.72H120.023C122.007 44.72 122.999 43.728 122.999 41.744V33.776C122.999 31.792 122.007 30.8 120.023 30.8H115.255C113.271 30.8 112.279 31.792 112.279 33.776V41.744ZM129.626 46V29.52H148.282C151.312 29.52 152.826 31.0453 152.826 34.096V46H151.386V33.776C151.386 31.792 150.394 30.8 148.41 30.8H141.946V46H140.506V30.8H131.066V46H129.626ZM158.446 46V23.92H172.43V25.328H159.982V34.544H171.47V35.952H159.982V46H158.446ZM175.839 41.424V34.096C175.839 31.0453 177.364 29.52 180.415 29.52H184.895C187.924 29.52 189.439 31.0453 189.439 34.096V41.424C189.439 44.4747 187.924 46 184.895 46H180.415C177.364 46 175.839 44.4747 175.839 41.424ZM177.279 41.744C177.279 43.728 178.271 44.72 180.255 44.72H185.023C187.007 44.72 187.999 43.728 187.999 41.744V33.776C187.999 31.792 187.007 30.8 185.023 30.8H180.255C178.271 30.8 177.279 31.792 177.279 33.776V41.744ZM192.898 45.68L199.01 37.552L193.154 29.84L193.314 29.52H194.658L199.874 36.56L205.09 29.52H206.434L206.594 29.84L200.77 37.552L206.85 45.68L206.722 46H205.346L199.874 38.544L194.402 46H193.058L192.898 45.68Z" fill="url(#paint1_linear_8224_65)"/>
<defs>
<linearGradient id="paint0_linear_8224_65" x1="52.5032" y1="3.36364" x2="6.35535" y2="71.3001" gradientUnits="userSpaceOnUse">
<stop stop-color="#652400"/>
<stop offset="1" stop-color="#D64D00"/>
</linearGradient>
<linearGradient id="paint1_linear_8224_65" x1="73" y1="37" x2="208" y2="37" gradientUnits="userSpaceOnUse">
<stop stop-color="#D64D00"/>
<stop offset="1" stop-color="#652400"/>
</linearGradient>
</defs>
</svg>
